<?xml version="1.0" standalone="no"?>
<!DOCTYPE svg PUBLIC "-//W3C//DTD SVG 20010904//EN"
 "http://www.w3.org/TR/2001/REC-SVG-20010904/DTD/svg10.dtd">
<svg version="1.0" xmlns="http://www.w3.org/2000/svg"
 width="4290.000000pt" height="388.000000pt" viewBox="0 0 4290.000000 388.000000"
 preserveAspectRatio="xMidYMid meet">

<g transform="translate(0.000000,388.000000) scale(0.100000,-0.100000)"
fill="#000000" stroke="none">
<path d="M0 1945 l0 -1935 1513 0 c1502 0 1681 3 1977 36 443 48 908 167 1205
308 279 133 510 318 680 547 237 318 315 584 315 1067 0 366 -41 560 -177 839
-153 317 -393 529 -835 743 -385 185 -872 286 -1543 320 -113 5 -838 10 -1667
10 l-1468 0 0 -1935z m3025 835 c689 -63 1050 -273 1121 -650 20 -102 14 -324
-10 -410 -76 -271 -333 -457 -757 -549 -240 -52 -283 -54 -1116 -58 l-783 -4
0 840 0 841 718 0 c403 0 765 -4 827 -10z"/>
<path d="M6020 1945 l0 -1935 735 0 735 0 0 1935 0 1935 -735 0 -735 0 0
-1935z"/>
<path d="M9790 3870 c-821 -48 -1354 -216 -1641 -517 -183 -193 -251 -375
-251 -673 0 -228 40 -375 144 -531 192 -288 573 -478 1148 -573 243 -40 427
-55 820 -66 1014 -28 1145 -36 1334 -85 137 -34 191 -60 210 -100 22 -45 20
-123 -3 -161 -25 -41 -138 -99 -242 -123 -208 -49 -321 -56 -879 -56 -547 0
-663 6 -817 46 -125 31 -196 78 -234 152 -11 21 -25 81 -32 135 l-12 97 -747
3 -748 2 0 -33 c0 -72 23 -255 41 -327 42 -166 175 -379 325 -519 195 -182
432 -297 809 -391 442 -111 748 -140 1466 -140 610 0 952 23 1298 86 504 91
798 220 1026 449 151 151 230 293 272 485 14 68 18 128 17 300 0 248 -12 308
-87 465 -167 346 -537 550 -1187 654 -300 49 -598 66 -1390 82 -610 11 -714
21 -905 80 -84 26 -115 52 -121 104 -9 78 24 106 175 144 196 49 287 56 756
56 375 0 457 -3 555 -18 346 -54 492 -121 556 -255 15 -31 28 -58 29 -60 3 -3
1222 -32 1379 -32 l119 0 -6 143 c-6 158 -31 265 -88 380 -90 178 -275 358
-499 484 -250 141 -688 248 -1230 299 -192 18 -1123 28 -1360 14z"/>
<path d="M24040 1945 l0 -1935 735 0 735 0 0 605 0 605 608 0 607 0 375 -601
c206 -331 380 -603 385 -605 6 -2 367 -3 802 -2 l793 3 -430 675 c-237 371
-430 677 -430 680 0 3 30 16 68 28 339 118 615 359 728 636 75 183 100 346 91
590 -3 89 -13 195 -22 236 -136 623 -667 949 -1650 1010 -95 6 -813 10 -1777
10 l-1618 0 0 -1935z m3308 862 c174 -47 236 -115 236 -262 0 -133 -52 -200
-193 -248 l-66 -22 -907 -3 -908 -3 0 281 0 281 888 -4 c794 -3 894 -5 950
-20z"/>
<path d="M29450 1945 l0 -1935 1889 0 c1209 0 1934 4 2017 10 705 57 1148 282
1330 675 65 141 86 245 91 455 6 209 -6 303 -58 443 -80 222 -215 363 -493
520 l-97 55 86 57 c120 81 206 177 260 290 65 136 79 202 79 385 0 199 -28
310 -115 457 -46 76 -187 218 -278 278 -198 130 -494 208 -891 235 -85 6 -903
10 -1982 10 l-1838 0 0 -1935z m3435 935 c87 -13 164 -49 188 -89 11 -20 17
-50 17 -95 0 -59 -3 -69 -31 -101 -23 -25 -48 -40 -96 -55 -63 -19 -92 -20
-1049 -20 l-984 0 0 185 0 185 943 0 c573 0 969 -4 1012 -10z m212 -1386 c33
-12 76 -32 93 -44 70 -50 92 -179 46 -275 -43 -91 -108 -128 -252 -145 -55 -6
-468 -10 -1071 -10 l-983 0 0 250 0 251 1053 -3 c1041 -3 1053 -3 1114 -24z"/>
<path d="M35127 3873 c-4 -3 -7 -874 -7 -1935 l0 -1928 735 0 735 0 0 1935 0
1935 -728 0 c-401 0 -732 -3 -735 -7z"/>
<path d="M37845 1988 c-554 -1041 -1019 -1912 -1032 -1936 l-25 -42 742 2 742
3 167 325 167 325 1239 2 1240 3 168 -330 168 -330 740 0 740 0 -60 113 c-33
61 -496 931 -1030 1932 l-969 1820 -995 3 -994 2 -1008 -1892z m2412 297 c155
-302 283 -553 283 -557 0 -5 -313 -8 -695 -8 -382 0 -695 2 -695 5 0 4 457
897 562 1098 8 16 23 17 136 15 l126 -3 283 -550z"/>
<path d="M13225 3858 c-3 -7 -4 -251 -3 -543 l3 -530 858 -3 857 -2 0 -1385 0
-1385 740 0 740 0 0 1385 0 1385 860 0 860 0 0 545 0 545 -2455 0 c-1955 0
-2457 -3 -2460 -12z"/>
<path d="M18317 3863 c-12 -11 -8 -1940 3 -2054 33 -322 162 -672 338 -918 76
-106 220 -257 333 -348 376 -305 883 -474 1566 -524 219 -16 862 -6 1033 15
505 64 960 220 1255 431 372 267 667 716 754 1150 39 194 41 268 41 1275 l0
980 -732 -2 -733 -3 -2 -955 c-2 -1037 -2 -1027 -59 -1179 -54 -144 -178 -302
-298 -380 -119 -78 -277 -134 -471 -168 -78 -13 -158 -17 -365 -17 -231 -1
-281 2 -388 22 -238 42 -437 129 -547 237 -110 108 -190 246 -233 404 l-27 96
-3 973 -3 972 -728 0 c-400 0 -731 -3 -734 -7z"/>
</g>
</svg>
